<svg width="24" height="24" viewBox="0 0 24 24" fill="none" xmlns="http://www.w3.org/2000/svg">
<g id="pin 1" clip-path="url(#clip0_143_2756)">
<g id="Group">
<path id="Vector" d="M12 0C7.11133 0 3.13428 3.97705 3.13428 8.86571C3.13428 10.4751 3.85605 12.206 3.8863 12.279C4.11941 12.8323 4.57939 13.6918 4.91107 14.1956L10.9898 23.406C11.2386 23.7836 11.6068 24 12 24C12.3932 24 12.7614 23.7836 13.0102 23.4065L19.0894 14.1956C19.4216 13.6918 19.8811 12.8323 20.1142 12.279C20.1444 12.2065 20.8657 10.4756 20.8657 8.86571C20.8657 3.97705 16.8886 0 12 0ZM19.1525 11.8743C18.9444 12.3703 18.5163 13.1698 18.2185 13.6214L12.1392 22.8323C12.0193 23.0143 11.9812 23.0143 11.8613 22.8323L5.782 13.6214C5.48421 13.1698 5.05605 12.3698 4.84797 11.8738C4.8391 11.8524 4.1773 10.2592 4.1773 8.86571C4.1773 4.55228 7.68656 1.04302 12 1.04302C16.3134 1.04302 19.8227 4.55228 19.8227 8.86571C19.8227 10.2613 19.1593 11.8587 19.1525 11.8743Z" fill="white"/>
<path id="Vector_2" d="M12 4.17261C9.41174 4.17261 7.3064 6.27847 7.3064 8.86622C7.3064 11.454 9.41174 13.5598 12 13.5598C14.5883 13.5598 16.6936 11.454 16.6936 8.86622C16.6936 6.27847 14.5883 4.17261 12 4.17261ZM12 12.5168C9.98749 12.5168 8.34942 10.8793 8.34942 8.86622C8.34942 6.85318 9.98749 5.21563 12 5.21563C14.0125 5.21563 15.6506 6.85318 15.6506 8.86622C15.6506 10.8793 14.0125 12.5168 12 12.5168Z" fill="white"/>
</g>
</g>
<defs>
<clipPath id="clip0_143_2756">
<rect width="24" height="24" fill="white"/>
</clipPath>
</defs>
</svg>
