<svg width="24" height="24" viewBox="0 0 24 24" fill="none" xmlns="http://www.w3.org/2000/svg">
<g id="invoice 1">
<g id="Group">
<path id="Vector" d="M20.8535 5.1465L15.8535 0.146484C15.7598 0.0527344 15.6328 0 15.5 0H4.99997C3.89747 0 3 0.896953 3 2.00002V22C3 23.103 3.89747 24 5.00002 24H19C20.1025 24 21 23.103 21 22V5.49998C21 5.36719 20.9473 5.24025 20.8535 5.1465ZM16 1.70705L19.293 5.00002H17C16.4482 5.00002 16 4.55128 16 4.00003V1.70705ZM20 22C20 22.5512 19.5518 23 19 23H5.00002C4.44825 23 4.00003 22.5512 4.00003 22V2.00002C4.00003 1.44877 4.4483 1.00003 5.00002 1.00003H15V4.00003C15 5.10305 15.8975 6 17 6H20V22Z" fill="white"/>
<path id="Vector_2" d="M17.5 14H6.50002C6.43434 13.9999 6.3693 14.0128 6.30862 14.0379C6.24793 14.0631 6.19279 14.0999 6.14636 14.1463C6.09992 14.1928 6.06309 14.2479 6.03797 14.3086C6.01286 14.3693 5.99996 14.4343 6 14.5C5.99996 14.5657 6.01286 14.6307 6.03797 14.6914C6.06309 14.7521 6.09992 14.8072 6.14636 14.8536C6.19279 14.9001 6.24793 14.9369 6.30862 14.962C6.3693 14.9871 6.43434 15 6.50002 15H17.5C17.5657 15 17.6307 14.9871 17.6914 14.962C17.7521 14.9369 17.8073 14.9001 17.8537 14.8536C17.9001 14.8072 17.937 14.7521 17.9621 14.6914C17.9872 14.6307 18.0001 14.5657 18 14.5C18.0001 14.4343 17.9872 14.3693 17.962 14.3086C17.9369 14.2479 17.9001 14.1928 17.8536 14.1463C17.8072 14.0999 17.7521 14.0631 17.6914 14.038C17.6307 14.0128 17.5657 13.9999 17.5 14ZM17.5 11H6.50002C6.43434 10.9999 6.3693 11.0128 6.30862 11.0379C6.24793 11.0631 6.19279 11.0999 6.14636 11.1463C6.09992 11.1928 6.06309 11.2479 6.03797 11.3086C6.01286 11.3693 5.99996 11.4343 6 11.5C5.99996 11.5657 6.01286 11.6307 6.03797 11.6914C6.06309 11.7521 6.09992 11.8072 6.14636 11.8536C6.19279 11.9001 6.24793 11.9369 6.30862 11.962C6.3693 11.9871 6.43434 12 6.50002 12H17.5C17.5657 12 17.6307 11.9871 17.6914 11.962C17.7521 11.9369 17.8073 11.9001 17.8537 11.8536C17.9001 11.8072 17.937 11.7521 17.9621 11.6914C17.9872 11.6307 18.0001 11.5657 18 11.5C18.0001 11.4343 17.9872 11.3693 17.962 11.3086C17.9369 11.2479 17.9001 11.1928 17.8536 11.1463C17.8072 11.0999 17.7521 11.0631 17.6914 11.038C17.6307 11.0128 17.5657 10.9999 17.5 11ZM17.5 17H6.50002C6.43434 16.9999 6.3693 17.0128 6.30862 17.0379C6.24793 17.0631 6.19279 17.0999 6.14636 17.1463C6.09992 17.1928 6.06309 17.2479 6.03797 17.3086C6.01286 17.3693 5.99996 17.4343 6 17.5C5.99996 17.5657 6.01286 17.6307 6.03797 17.6914C6.06309 17.7521 6.09992 17.8072 6.14636 17.8536C6.19279 17.9001 6.24793 17.9369 6.30862 17.962C6.3693 17.9871 6.43434 18 6.50002 18H17.5C17.5657 18 17.6307 17.9871 17.6914 17.962C17.7521 17.9369 17.8073 17.9001 17.8537 17.8536C17.9001 17.8072 17.937 17.7521 17.9621 17.6914C17.9872 17.6307 18.0001 17.5657 18 17.5C18.0001 17.4343 17.9872 17.3693 17.962 17.3086C17.9369 17.2479 17.9001 17.1928 17.8536 17.1463C17.8072 17.0999 17.7521 17.0631 17.6914 17.038C17.6307 17.0128 17.5657 16.9999 17.5 17ZM12.5 20H6.50002C6.43434 19.9999 6.3693 20.0128 6.30862 20.0379C6.24793 20.0631 6.19279 20.0999 6.14636 20.1463C6.09992 20.1928 6.06309 20.2479 6.03797 20.3086C6.01286 20.3693 5.99996 20.4343 6 20.5C5.99996 20.5657 6.01286 20.6307 6.03797 20.6914C6.06309 20.7521 6.09992 20.8072 6.14636 20.8536C6.19279 20.9001 6.24793 20.9369 6.30862 20.962C6.3693 20.9871 6.43434 21 6.50002 21H12.5C12.5657 21 12.6307 20.9871 12.6914 20.962C12.7521 20.9369 12.8072 20.9001 12.8537 20.8536C12.9001 20.8072 12.9369 20.7521 12.9621 20.6914C12.9872 20.6307 13.0001 20.5657 13 20.5C13.0001 20.4343 12.9872 20.3693 12.962 20.3086C12.9369 20.2479 12.9001 20.1928 12.8536 20.1464C12.8072 20.0999 12.7521 20.0631 12.6914 20.038C12.6307 20.0129 12.5657 19.9999 12.5 20ZM11 8.49994C11 8.56562 11.0129 8.63066 11.038 8.69134C11.0631 8.75202 11.0999 8.80716 11.1464 8.8536C11.1928 8.90004 11.2479 8.93687 11.3086 8.96198C11.3693 8.9871 11.4344 9 11.5 8.99996H17.5C17.5657 9 17.6307 8.9871 17.6914 8.96198C17.7521 8.93687 17.8073 8.90004 17.8537 8.8536C17.9001 8.80716 17.937 8.75202 17.9621 8.69134C17.9872 8.63066 18.0001 8.56562 18 8.49994C18.0001 8.43427 17.9872 8.36923 17.9621 8.30854C17.937 8.24786 17.9001 8.19272 17.8537 8.14628C17.8073 8.09984 17.7521 8.06301 17.6914 8.0379C17.6307 8.01279 17.5657 7.99988 17.5 7.99993H11.5C11.4344 7.99989 11.3693 8.01281 11.3086 8.03792C11.248 8.06304 11.1928 8.09987 11.1464 8.14631C11.1 8.19274 11.0631 8.24788 11.038 8.30856C11.0129 8.36924 11 8.43427 11 8.49994ZM7.5 7.99997H6.50002C6.43434 7.99993 6.3693 8.01283 6.30862 8.03795C6.24793 8.06306 6.19279 8.09989 6.14636 8.14633C6.09992 8.19277 6.06309 8.2479 6.03797 8.30859C6.01286 8.36927 5.99996 8.43431 6 8.49999C5.99996 8.56566 6.01286 8.6307 6.03797 8.69139C6.06309 8.75207 6.09992 8.80721 6.14636 8.85365C6.19279 8.90009 6.24793 8.93692 6.30862 8.96203C6.3693 8.98714 6.43434 9.00005 6.50002 9H7.00003C7.00003 9.27638 7.22367 9.50002 7.50005 9.50002C7.77642 9.50002 8.00006 9.27638 8.00006 9V8.90789C8.58075 8.70075 9 8.15096 9 7.49996C9 6.6728 8.32716 5.99996 7.5 5.99996C7.22461 5.99996 6.99998 5.77585 6.99998 5.49994C6.99998 5.22408 7.22461 4.99992 7.5 4.99992H8.49998C8.77636 4.99992 9 4.77628 9 4.49991C9 4.22353 8.77636 3.99989 8.49998 3.99989H7.99997C7.99997 3.72352 7.77633 3.49988 7.49995 3.49988C7.22358 3.49988 6.99994 3.72352 6.99994 3.99989V4.092C6.41925 4.29914 6 4.84894 6 5.49994C6 6.3271 6.67284 6.99994 7.5 6.99994C7.77539 6.99994 8.00002 7.22405 8.00002 7.49996C8.00002 7.77586 7.77539 7.99997 7.5 7.99997Z" fill="white"/>
</g>
</g>
</svg>
