<svg width="24" height="24" viewBox="0 0 24 24" fill="none" xmlns="http://www.w3.org/2000/svg">
<g id="chat 1">
<g id="Group">
<path id="Vector" d="M22.3125 9.75C22.3125 6.135 18.36 3.1875 13.5 3.1875C8.76746 3.1875 4.90496 6 4.70996 9.4725C2.81246 10.4925 1.70996 12.1125 1.70996 13.875C1.73043 14.6092 1.91887 15.329 2.2608 15.979C2.60272 16.6291 3.08906 17.1921 3.68246 17.625C3.55496 18.0375 3.41996 18.4275 3.29996 18.7875L3.19496 19.0875C3.11513 19.313 3.09879 19.556 3.14772 19.7901C3.19666 20.0242 3.309 20.2404 3.47246 20.415C3.59533 20.5468 3.7439 20.6521 3.909 20.7243C4.0741 20.7966 4.25225 20.8342 4.43246 20.835C4.55194 20.8354 4.67078 20.8177 4.78496 20.7825C5.91901 20.4888 6.98593 19.9795 7.92746 19.2825C8.2762 19.3205 8.62666 19.3406 8.97746 19.3425C11.76 19.3425 14.2275 18.1725 15.4575 16.3425C16.3765 17.0116 17.4114 17.5049 18.51 17.7975C18.6251 17.8272 18.7435 17.8423 18.8625 17.8425C19.0427 17.8417 19.2208 17.8041 19.3859 17.7318C19.551 17.6596 19.6996 17.5543 19.8225 17.4225C19.9867 17.2484 20.0995 17.0322 20.1485 16.7979C20.1974 16.5636 20.1806 16.3203 20.1 16.095C19.9425 15.645 19.7625 15.1125 19.5825 14.5425C20.3938 14.0268 21.0667 13.3205 21.5425 12.4852C22.0184 11.6499 22.2827 10.7109 22.3125 9.75ZM8.95496 18.1875C8.57371 18.1879 8.19286 18.1629 7.81496 18.1125C7.73927 18.1015 7.66213 18.1065 7.5885 18.1272C7.51487 18.1479 7.44639 18.1837 7.38746 18.2325C6.53279 18.9054 5.55047 19.3978 4.49996 19.68C4.4669 19.6893 4.43193 19.6893 4.39886 19.68C4.3658 19.6707 4.33591 19.6526 4.31246 19.6275C4.29279 19.5988 4.28226 19.5648 4.28226 19.53C4.28226 19.4952 4.29279 19.4612 4.31246 19.4325L4.41746 19.125C4.57496 18.6525 4.76246 18.1125 4.93496 17.5575C4.9694 17.4429 4.96692 17.3205 4.92789 17.2074C4.88885 17.0943 4.81523 16.9964 4.71746 16.9275C4.16948 16.6192 3.70782 16.1781 3.37494 15.6447C3.04206 15.1113 2.84863 14.5027 2.81246 13.875C2.8514 13.2249 3.05313 12.5951 3.39912 12.0433C3.7451 11.4916 4.22423 11.0357 4.79246 10.7175C5.45246 13.995 9.36746 16.515 13.995 16.2975C12.6263 17.5616 10.8173 18.2399 8.95496 18.1875ZM18.5925 13.8075C18.4896 13.874 18.4112 13.9722 18.3693 14.0872C18.3273 14.2023 18.324 14.3279 18.36 14.445C18.585 15.195 18.8175 15.87 19.02 16.44C19.0286 16.4725 19.0287 16.5067 19.0202 16.5392C19.0117 16.5718 18.9949 16.6016 18.9715 16.6257C18.9481 16.6499 18.9189 16.6676 18.8866 16.6771C18.8544 16.6866 18.8202 16.6876 18.7875 16.68C17.6914 16.401 16.6683 15.8894 15.7875 15.18C15.6863 15.0963 15.5588 15.0511 15.4275 15.0525H15.33C10.275 15.9 5.81246 13.1625 5.81246 9.75C5.81246 6.75 9.26246 4.3125 13.5 4.3125C17.7375 4.3125 21.1875 6.75 21.1875 9.75C21.1354 10.5911 20.8699 11.4051 20.4158 12.1151C19.9618 12.825 19.3342 13.4075 18.5925 13.8075Z" fill="white"/>
<path id="Vector_2" d="M16.5 8.8125C16.3146 8.8125 16.1333 8.86748 15.9792 8.9705C15.825 9.07351 15.7048 9.21993 15.6339 9.39123C15.5629 9.56254 15.5443 9.75104 15.5805 9.9329C15.6167 10.1148 15.706 10.2818 15.8371 10.4129C15.9682 10.544 16.1352 10.6333 16.3171 10.6695C16.499 10.7057 16.6875 10.6871 16.8588 10.6161C17.0301 10.5452 17.1765 10.425 17.2795 10.2708C17.3825 10.1167 17.4375 9.93542 17.4375 9.75C17.4375 9.50136 17.3387 9.2629 17.1629 9.08709C16.9871 8.91127 16.7486 8.8125 16.5 8.8125ZM10.5 8.8125C10.3146 8.8125 10.1333 8.86748 9.97915 8.9705C9.82498 9.07351 9.70482 9.21993 9.63386 9.39123C9.56291 9.56254 9.54434 9.75104 9.58051 9.9329C9.61669 10.1148 9.70598 10.2818 9.83709 10.4129C9.9682 10.544 10.1352 10.6333 10.3171 10.6695C10.499 10.7057 10.6875 10.6871 10.8588 10.6161C11.0301 10.5452 11.1765 10.425 11.2795 10.2708C11.3825 10.1167 11.4375 9.93542 11.4375 9.75C11.4375 9.50136 11.3387 9.2629 11.1629 9.08709C10.9871 8.91127 10.7486 8.8125 10.5 8.8125ZM13.5 8.8125C13.3146 8.8125 13.1333 8.86748 12.9792 8.9705C12.825 9.07351 12.7048 9.21993 12.6339 9.39123C12.5629 9.56254 12.5443 9.75104 12.5805 9.9329C12.6167 10.1148 12.706 10.2818 12.8371 10.4129C12.9682 10.544 13.1352 10.6333 13.3171 10.6695C13.499 10.7057 13.6875 10.6871 13.8588 10.6161C14.0301 10.5452 14.1765 10.425 14.2795 10.2708C14.3825 10.1167 14.4375 9.93542 14.4375 9.75C14.4375 9.50136 14.3387 9.2629 14.1629 9.08709C13.9871 8.91127 13.7486 8.8125 13.5 8.8125Z" fill="white"/>
</g>
</g>
</svg>
