<svg width="24" height="24" viewBox="0 0 24 24" fill="none" xmlns="http://www.w3.org/2000/svg">
<g id="customer-support 2" clip-path="url(#clip0_143_2752)">
<g id="Group">
<path id="Vector" d="M20.6112 7.29006H14.3284V2.80844C14.33 2.45079 14.2602 2.09641 14.1232 1.76608C13.9861 1.43574 13.7844 1.13609 13.53 0.884685C13.278 0.630984 12.9782 0.429789 12.6479 0.292746C12.3177 0.155704 11.9635 0.0855382 11.6059 0.08631H2.96591C1.46478 0.08631 0.243408 1.30769 0.243408 2.80881V8.56881C0.243408 10.0699 1.46478 11.2913 2.96591 11.2913H3.12341V12.8888C3.12341 13.4146 3.43728 13.8814 3.92253 14.0779C4.07891 14.1409 4.24128 14.1717 4.40216 14.1717C4.73816 14.1717 5.06553 14.0386 5.30516 13.7899L7.13441 11.9708V17.3232C7.13441 19.0576 8.54553 20.4687 10.2799 20.4687H14.8515L17.8827 23.4833C18.0778 23.6857 18.3291 23.825 18.6041 23.8833C18.8791 23.9416 19.1653 23.9162 19.4258 23.8103C19.6888 23.7041 19.9139 23.5214 20.0719 23.2859C20.23 23.0504 20.3137 22.7728 20.3123 22.4892V20.4687H20.6108C22.3452 20.4687 23.7563 19.0576 23.7563 17.3232V10.4356C23.7567 8.70119 22.3455 7.29006 20.6112 7.29006ZM7.13703 10.3819L4.50416 12.9998C4.45841 13.0474 4.40478 13.0598 4.34441 13.0347C4.31478 13.0239 4.28943 13.0039 4.27213 12.9775C4.25483 12.9511 4.24651 12.9199 4.24841 12.8884V10.7284C4.24841 10.5793 4.18914 10.4362 4.08366 10.3307C3.97817 10.2252 3.83509 10.1659 3.68591 10.1659H2.96591C2.54238 10.1654 2.13634 9.99697 1.83685 9.69749C1.53737 9.39801 1.3689 8.99197 1.36841 8.56844V2.80844C1.3689 2.3849 1.53737 1.97886 1.83685 1.67938C2.13634 1.3799 2.54238 1.21143 2.96591 1.21094H11.6059C12.0312 1.21094 12.432 1.37744 12.7365 1.68194C12.8854 1.82917 13.0034 2.00465 13.0836 2.1981C13.1638 2.39154 13.2045 2.59904 13.2034 2.80844V7.29006H10.2799C9.86679 7.28927 9.45761 7.37039 9.07604 7.52873C8.69447 7.68708 8.34808 7.9195 8.05691 8.21256C7.47874 8.78781 7.14859 9.56643 7.13703 10.3819ZM22.6317 17.3228C22.6311 17.8585 22.418 18.3721 22.0392 18.7509C21.6604 19.1297 21.1468 19.3427 20.6112 19.3433H19.7502C19.601 19.3433 19.4579 19.4026 19.3524 19.5081C19.2469 19.6136 19.1877 19.7566 19.1877 19.9058V22.4888C19.1899 22.5486 19.1733 22.6076 19.1404 22.6575C19.1075 22.7075 19.0597 22.7459 19.0039 22.7674C18.9494 22.79 18.8892 22.7949 18.8318 22.7815C18.7744 22.7682 18.7226 22.7371 18.6837 22.6928L15.4808 19.5072C15.3754 19.4023 15.2327 19.3434 15.084 19.3433H10.2799C9.74422 19.3427 9.23064 19.1297 8.85186 18.7509C8.47307 18.3721 8.26 17.8585 8.25941 17.3228V10.4356C8.25941 9.89706 8.47016 9.39044 8.85228 9.00831C9.0392 8.81994 9.26162 8.67051 9.50667 8.56868C9.75172 8.46685 10.0145 8.41464 10.2799 8.41506H20.6112C21.1468 8.41566 21.6604 8.62872 22.0392 9.00751C22.418 9.3863 22.6311 9.89987 22.6317 10.4356V17.3228Z" fill="white"/>
<path id="Vector_2" d="M11.9632 13.0583C11.5057 13.0583 11.1333 13.4311 11.1333 13.8882C11.1333 14.3454 11.5061 14.7181 11.9632 14.7181C12.4211 14.7181 12.7938 14.3454 12.7938 13.8882C12.7938 13.4311 12.4211 13.0583 11.9632 13.0583ZM15.4451 13.0583C14.9876 13.0583 14.6152 13.4311 14.6152 13.8882C14.6152 14.3454 14.9879 14.7181 15.4451 14.7181C15.9029 14.7181 16.2757 14.3454 16.2757 13.8882C16.2757 13.4311 15.9033 13.0583 15.4451 13.0583ZM18.9273 13.0583C18.4698 13.0583 18.0974 13.4311 18.0974 13.8882C18.0974 14.3454 18.4702 14.7181 18.9273 14.7181C19.3852 14.7181 19.7579 14.3454 19.7579 13.8882C19.7579 13.4311 19.3852 13.0583 18.9273 13.0583Z" fill="white"/>
</g>
</g>
<defs>
<clipPath id="clip0_143_2752">
<rect width="24" height="24" fill="white"/>
</clipPath>
</defs>
</svg>
